<?xml version="1.0"?>
<svg xmlns="http://www.w3.org/2000/svg" height="512px" viewBox="-108 -21 682 682.66669" width="512px"><path d="m171.84375 93.378906c0-30.847656 25.097656-55.953125 55.953125-55.953125 30.851563 0 55.949219 25.105469 55.949219 55.953125v16.40625h37.429687v-16.40625c0-51.488281-41.890625-93.378906-93.378906-93.378906-51.492187 0-93.378906 41.890625-93.378906 93.378906v16.40625h37.425781zm0 0" fill="#dc1f26"/><path d="m460.835938 586.390625-29.925782-395.199219c-.015625-.207031-.035156-.414062-.058594-.625-2.703124-24.714844-23.5-43.355468-48.363281-43.355468h-308.167969c-24.816406 0-45.601562 18.59375-48.355468 43.253906-.023438.203125-.042969.402344-.058594.609375l-31.144531 395.210937c-1.425781 13.628906 2.984375 27.273438 12.128906 37.5 9.21875 10.300782 22.4375 16.214844 36.265625 16.214844h369.277344c13.808594 0 27.015625-5.898438 36.230468-16.175781 9.140626-10.195313 13.566407-23.820313 12.171876-37.433594zm0 0" fill="#dc1f26"/></svg>
